<?xml version="1.0" encoding="iso-8859-1"?>
<!-- Generator: Adobe Illustrator 19.0.0, SVG Export Plug-In . SVG Version: 6.00 Build 0)  -->
<svg version="1.1" id="Layer_1" xmlns="http://www.w3.org/2000/svg" xmlns:xlink="http://www.w3.org/1999/xlink" x="0px" y="0px"
	 viewBox="0 0 512.001 512.001" style="enable-background:new 0 0 512.001 512.001;" xml:space="preserve">
<path style="fill:#7C6251;" d="M148.894,435.695c-22.511-26.612-26.963-114.249-26.778-145.772c0.012-2.221-0.855-4.358-2.411-5.941
	c-10.182-10.35-27.476-30.355-30.537-39.976c-1.23-3.865-5.04-6.301-9.068-5.786c-4.023,0.513-7.106,3.827-7.325,7.877
	c-0.024,0.414-2.23,41.971-0.584,86.132c0.974,26.122,3.088,48.1,6.285,65.327c4.331,23.342,10.694,38.214,19.452,45.463
	c10.252,8.487,20.388,10.747,28.279,10.747c1.912,0,3.693-0.133,5.311-0.342c8.876-1.148,14.822-4.798,15.47-5.21
	c2.425-1.541,3.893-4.22,3.893-7.093C150.881,439.134,150.178,437.211,148.894,435.695z"/>
<path style="fill:#FFDCAF;" d="M91.376,109.661c-1.474-2.69-4.299-4.363-7.367-4.363H39.268c-3.067,0-5.89,1.672-7.365,4.36
	L1.034,165.947c-1.478,2.697-1.365,5.987,0.296,8.575c0.335,0.522,8.368,12.895,22.447,21.964c7.916,5.1,18.613,9.713,31.398,9.713
	c9.063,0,19.177-2.32,30.091-8.427c1.711-0.958,3.033-2.484,3.738-4.314l0.002-0.007c0.857-2.228,0.726-4.715-0.362-6.84
	c-1.086-2.126-3.026-3.688-5.335-4.297c-6.484-1.711-8.465-5.055-9.39-7.42c-5.244-13.407,7.751-41.881,17.171-56.675
	C92.74,115.632,92.85,112.352,91.376,109.661z"/>
<g>
	<path style="fill:#7C6251;" d="M448.887,411.902c-0.164-0.035-16.481-3.61-31.488-20.211
		c-20.17-22.316-29.003-58.123-25.542-103.548c0.31-4.083-2.369-7.796-6.342-8.788c-3.053-0.766-6.276,0.243-8.352,2.609
		c-4.787,5.457-10.732,10.671-17.67,15.497c-13.979,9.724-26.675,20.846-37.736,33.058c-1.399,1.545-2.174,3.555-2.174,5.639
		c0,0.706,5.723,64.363,58.366,90.18c-6.654,5.152-12.054,12.848-12.985,23.943c-0.197,2.342,0.597,4.658,2.187,6.389
		c1.59,1.729,3.833,2.714,6.184,2.714h73.878c4.639,0,8.4-3.761,8.4-8.4v-30.848C455.618,416.158,452.778,412.717,448.887,411.902z"
		/>
	<path style="fill:#7C6251;" d="M450.342,203.865c-12.736-10.6-27.489-17.529-42.665-20.038
		c-11.552-1.909-19.722-0.718-21.956-0.308c-0.38,0.071-0.748,0.158-1.117,0.252l-0.134,0.034c-2.612,0.635-4.762,2.482-5.784,4.97
		c-1.021,2.487-0.792,5.311,0.618,7.601c3.399,5.515,6.232,11.353,8.421,17.348c0.942,2.581,1.775,5.19,2.474,7.755
		c0.931,3.411,3.897,5.874,7.42,6.161c5.693,0.466,14.49,2.693,24.063,10.661c20.765,17.282,45.516,61.296,45.516,172.833
		c0,12.352,10.049,22.401,22.401,22.401c12.352,0,22.401-10.049,22.401-22.401C512,307.651,491.255,237.917,450.342,203.865z"/>
</g>
<path style="fill:#B99C80;" d="M403.506,207.961c-10.932-29.943-34.529-54.348-64.738-66.955
	c-35.522-14.825-88.414-36.337-138.673-54.631C135.924,63.014,95.683,51.975,77.1,52.646c-29.929,1.069-46.383,17.403-54.916,30.92
	c-9.024,14.292-11.111,28.354-11.195,28.946c-0.344,2.41,0.375,4.851,1.97,6.691c1.596,1.839,3.911,2.896,6.346,2.896h50.278
	c-8.503,16.54-19.777,44.693-9.526,62.695c2.802,4.921,6.863,8.641,12.08,11.211c-1.213,12.811-3.123,40.07,1.021,53.096
	c4.549,14.301,24.808,36.453,32.164,44.176c0.076,10.573,0.711,43.49,5.464,77.168c8.22,58.237,24.052,87.272,48.401,88.761
	c1.94,0.119,3.834,0.178,5.682,0.178c15.659-0.001,28.028-4.257,36.818-12.689c2.295-2.202,4.169-4.54,5.707-6.898
	c-0.687,3.664-0.699,6.997-0.3,9.623c0.623,4.107,4.153,7.141,8.305,7.141h62.266c4.509,0,8.214-3.575,8.395-8.081
	c0.008-0.206,0.945-20.866,11.676-48.024c9.837-24.894,30.201-60.578,71.355-89.206C416.629,278.18,414.045,236.828,403.506,207.961
	z M213.246,425.874c1.128-4.904,1.094-8.434,1.088-8.748c-0.088-4.575-3.823-8.237-8.399-8.237h-31.178v-99.12h61.293v99.257
	C224.887,413.243,217.702,419.41,213.246,425.874z"/>
<path style="fill:#A38166;" d="M403.506,207.961c-10.932-29.943-34.529-54.348-64.738-66.955
	c-35.522-14.825-88.414-36.337-138.673-54.631C135.924,63.014,95.683,51.975,77.1,52.646c-4.76,0.17-9.177,0.729-13.277,1.598
	c22.137,3.826,56.992,14.444,105.578,32.131c50.259,18.295,103.151,39.806,138.673,54.631c30.21,12.607,53.806,37.012,64.738,66.955
	c10.54,28.867,13.122,70.219-34.416,103.29c-41.154,28.628-61.517,64.312-71.355,89.206c-10.731,27.158-11.669,47.818-11.676,48.024
	c-0.18,4.506-3.885,8.081-8.395,8.081h30.694c4.509,0,8.214-3.575,8.395-8.081c0.008-0.206,0.945-20.866,11.676-48.024
	c9.837-24.894,30.201-60.578,71.355-89.206C416.629,278.18,414.045,236.828,403.506,207.961z"/>
<path style="fill:#FF7E90;" d="M403.506,207.963c-2.577-7.059-5.907-13.922-9.899-20.401c-2.416-3.92-7.536-5.166-11.48-2.792
	c-1.594,0.959-39.053,23.858-39.613,56.696c-0.33,19.342,11.915,37.202,36.396,53.086c1.405,0.912,2.993,1.353,4.568,1.353
	c2.35,0,4.672-0.983,6.318-2.861C410.481,269.472,415.222,240.051,403.506,207.963z"/>
<path style="fill:#FF5468;" d="M389.796,293.043c18.742-21.357,24.395-47.516,16.578-76.111c-0.003-0.011-0.007-0.024-0.009-0.035
	c-0.258-0.94-0.531-1.883-0.818-2.828c-0.021-0.071-0.043-0.142-0.064-0.213c-0.278-0.911-0.57-1.825-0.876-2.74
	c-0.027-0.081-0.054-0.162-0.081-0.243c-0.32-0.954-0.655-1.911-1.005-2.871c-0.006-0.015-0.01-0.029-0.016-0.043
	c-0.333-0.911-0.678-1.814-1.033-2.715c-0.136-0.344-0.281-0.685-0.421-1.028c-0.223-0.547-0.444-1.094-0.674-1.638
	c-0.188-0.442-0.386-0.881-0.581-1.323c-0.194-0.44-0.385-0.883-0.585-1.319c-0.211-0.461-0.43-0.918-0.647-1.378
	c-0.197-0.418-0.392-0.837-0.595-1.251c-0.214-0.437-0.436-0.871-0.654-1.307c-0.223-0.441-0.444-0.884-0.672-1.322
	c-0.199-0.383-0.405-0.763-0.609-1.144c-0.267-0.497-0.532-0.993-0.806-1.486c-0.17-0.308-0.346-0.613-0.519-0.918
	c-0.326-0.573-0.653-1.146-0.988-1.714c-0.129-0.218-0.261-0.436-0.392-0.654c-0.286-0.476-0.577-0.948-0.869-1.419
	c-2.47-3.744-7.463-4.906-11.334-2.577c-0.642,0.385-7.091,4.329-14.605,11.037c1.995,3.935,3.77,7.989,5.291,12.156
	c7.857,21.521,11.287,49.979-7.171,76.774c3.929,3.349,8.348,6.623,13.268,9.815c1.405,0.912,2.993,1.353,4.568,1.353
	C385.826,295.904,388.148,294.921,389.796,293.043z"/>
<path style="fill:#2B2B2B;" d="M49.715,148.012c-5.365,0-9.73-4.358-9.73-9.713c0-5.356,4.365-9.713,9.73-9.713
	c5.366,0,9.731,4.358,9.731,9.713C59.446,143.655,55.081,148.012,49.715,148.012z"/>
<g>
</g>
<g>
</g>
<g>
</g>
<g>
</g>
<g>
</g>
<g>
</g>
<g>
</g>
<g>
</g>
<g>
</g>
<g>
</g>
<g>
</g>
<g>
</g>
<g>
</g>
<g>
</g>
<g>
</g>
</svg>
